<svg preserveAspectRatio="none" width="100%" height="100%" overflow="visible" style="display: block;" viewBox="0 0 20 16" fill="none" xmlns="http://www.w3.org/2000/svg">
<g id="SVG">
<path id="Vector" d="M4.5 0C5.87979 0 7 1.12021 7 2.5C7 3.87979 5.87979 5 4.5 5C3.12021 5 2 3.87979 2 2.5C2 1.12021 3.12021 0 4.5 0V0M16 0C17.3798 0 18.5 1.12021 18.5 2.5C18.5 3.87979 17.3798 5 16 5C14.6202 5 13.5 3.87979 13.5 2.5C13.5 1.12021 14.6202 0 16 0V0M0 9.33438C0 7.49375 1.49375 6 3.33437 6H4.66875C5.16562 6 5.6375 6.10937 6.0625 6.30312C6.02188 6.52812 6.00313 6.7625 6.00313 7C6.00313 8.19375 6.52812 9.26562 7.35625 10C7.35 10 7.34375 10 7.33437 10H0.665625C0.3 10 0 9.7 0 9.33438V9.33438M12.6656 10C12.6594 10 12.6531 10 12.6438 10C13.475 9.26562 13.9969 8.19375 13.9969 7C13.9969 6.7625 13.975 6.53125 13.9375 6.30312C14.3625 6.10625 14.8344 6 15.3313 6H16.6656C18.5062 6 20 7.49375 20 9.33438C20 9.70313 19.7 10 19.3344 10H12.6656V10M7 7C7 5.34425 8.34425 4 10 4C11.6557 4 13 5.34425 13 7C13 8.65575 11.6557 10 10 10C8.34425 10 7 8.65575 7 7V7M4 15.1656C4 12.8656 5.86562 11 8.16562 11H11.8344C14.1344 11 16 12.8656 16 15.1656C16 15.625 15.6281 16 15.1656 16H4.83437C4.375 16 4 15.6281 4 15.1656V15.1656" fill="var(--fill-0, white)"/>
</g>
</svg>
