<svg preserveAspectRatio="none" width="100%" height="100%" overflow="visible" style="display: block;" viewBox="0 0 18 16" fill="none" xmlns="http://www.w3.org/2000/svg">
<g id="SVG">
<path id="Vector" d="M7.8 14.7344C8.1375 14.8531 8.5 14.6062 8.5 14.25V2.45625C8.5 2.325 8.45 2.19375 8.34375 2.1125C7.73125 1.625 6.325 1 4.5 1C2.92188 1 1.44688 1.41563 0.565625 1.75313C0.2125 1.89063 0 2.24062 0 2.61875V14.1906C0 14.5625 0.4 14.8219 0.753125 14.7063C1.7375 14.3781 3.29688 14 4.5 14C5.55938 14 6.96875 14.4375 7.8 14.7344V14.7344M10.2 14.7344C11.0312 14.4375 12.4406 14 13.5 14C14.7031 14 16.2625 14.3781 17.2469 14.7063C17.6 14.825 18 14.5625 18 14.1906V2.61875C18 2.24062 17.7875 1.89063 17.4344 1.75625C16.5531 1.41563 15.0781 1 13.5 1C11.675 1 10.2688 1.625 9.65625 2.1125C9.55313 2.19375 9.5 2.325 9.5 2.45625V14.25C9.5 14.6062 9.86562 14.8531 10.2 14.7344V14.7344" fill="var(--fill-0, white)"/>
</g>
</svg>
